<svg xmlns="http://www.w3.org/2000/svg" width="26" height="23" viewBox="0 0 26 23">
    <path fill="#FFF" fill-rule="nonzero" d="M22.044 0H3.136A3.136 3.136 0 0 0 0 3.136v12.785a3.136 3.136 0 0 0 3.136 3.136H7.11l2.987 3.495c.21.269.508.448.866.448.359 0 .657-.15.867-.448l2.987-3.495h7.228a3.136 3.136 0 0 0 3.137-3.136V3.136A3.136 3.136 0 0 0 22.044 0zM6.004 11.858a2.365 2.365 0 0 1-2.36-2.36c0-1.284 1.075-2.359 2.36-2.359 1.284 0 2.36 1.075 2.36 2.36a2.365 2.365 0 0 1-2.36 2.36zm6.482 0c-1.285 0-2.36-1.075-2.36-2.36 0-1.284 1.075-2.359 2.36-2.359 1.284 0 2.36 1.075 2.36 2.36a2.365 2.365 0 0 1-2.36 2.36zm6.511 0a2.365 2.365 0 0 1-2.36-2.36c0-1.284 1.076-2.359 2.36-2.359 1.285 0 2.36 1.075 2.36 2.36a2.365 2.365 0 0 1-2.36 2.36z"/>
</svg>
