<svg xmlns="http://www.w3.org/2000/svg" width="23" height="24" viewBox="0 0 23 24">
    <g fill="#FFF" fill-rule="nonzero">
        <path d="M19.907 15.676c-.194-.406-.556-.676-.967-.676h-1.523c-.507.838-1.087 1.649-1.667 2.432h2.513l1.861 4.109H2.844l1.885-4.109h2.538A26.306 26.306 0 0 1 5.599 15H4.077c-.41 0-.773.27-.967.676l-2.997 6.54c-.265.595-.048 1.325.484 1.649.145.08.314.135.483.135h20.832c.605 0 1.088-.54 1.088-1.216 0-.19-.048-.379-.12-.54l-2.973-6.568z"/>
        <path d="M10.537.025C6.829.275 3.976 3.47 4 7.265c.049 4.794 3.951 9.313 5.903 11.286.61.599 1.585.599 2.195 0C14.073 16.553 18 12.009 18 7.166 18 3.22 14.878 0 11 0c-.146 0-.293 0-.463.025zm3.268 7.14c0 1.574-1.244 2.872-2.805 2.872-1.56 0-2.805-1.274-2.805-2.871 0-1.598 1.269-2.872 2.805-2.872 1.537 0 2.805 1.299 2.805 2.872z"/>
    </g>
</svg>
